<svg width="8" height="8" viewBox="0 0 8 8" fill="none" xmlns="http://www.w3.org/2000/svg">
<path opacity="0.8" d="M6.09034 2.932V2.128C6.25034 2.128 6.37834 2.08 6.47434 1.984C6.57034 1.888 6.61834 1.76 6.61834 1.6C6.61834 1.44 6.57034 1.316 6.47434 1.228C6.37834 1.132 6.25034 1.084 6.09034 1.084C5.93834 1.084 5.81434 1.132 5.71834 1.228C5.62234 1.316 5.57434 1.44 5.57434 1.6H4.77034C4.77034 1.2 4.89034 0.88 5.13034 0.64C5.37834 0.4 5.69834 0.28 6.09034 0.28C6.49034 0.28 6.81034 0.4 7.05034 0.64C7.29834 0.88 7.42234 1.2 7.42234 1.6C7.42234 2 7.29834 2.324 7.05034 2.572C6.81034 2.812 6.49034 2.932 6.09034 2.932ZM1.90234 7.12C1.51034 7.12 1.19034 7 0.942344 6.76C0.702344 6.512 0.582344 6.188 0.582344 5.788C0.582344 5.388 0.702344 5.068 0.942344 4.828C1.19034 4.588 1.51034 4.468 1.90234 4.468V5.272C1.75034 5.272 1.62634 5.32 1.53034 5.416C1.43434 5.504 1.38634 5.628 1.38634 5.788C1.38634 5.948 1.43434 6.076 1.53034 6.172C1.62634 6.268 1.75034 6.316 1.90234 6.316C2.06234 6.316 2.19034 6.268 2.28634 6.172C2.38234 6.076 2.43034 5.948 2.43034 5.788H3.23434C3.23434 6.188 3.11034 6.512 2.86234 6.76C2.62234 7 2.30234 7.12 1.90234 7.12ZM2.43034 5.788V1.6H3.23434V5.788H2.43034ZM1.90234 5.272V4.468H6.09034V5.272H1.90234ZM6.09034 7.12C5.69834 7.12 5.37834 7 5.13034 6.76C4.89034 6.512 4.77034 6.188 4.77034 5.788H5.57434C5.57434 5.948 5.62234 6.076 5.71834 6.172C5.81434 6.268 5.93834 6.316 6.09034 6.316C6.25034 6.316 6.37834 6.268 6.47434 6.172C6.57034 6.076 6.61834 5.948 6.61834 5.788C6.61834 5.628 6.57034 5.504 6.47434 5.416C6.37834 5.32 6.25034 5.272 6.09034 5.272V4.468C6.49034 4.468 6.81034 4.588 7.05034 4.828C7.29834 5.068 7.42234 5.388 7.42234 5.788C7.42234 6.188 7.29834 6.512 7.05034 6.76C6.81034 7 6.49034 7.12 6.09034 7.12ZM1.90234 2.932C1.51034 2.932 1.19034 2.812 0.942344 2.572C0.702344 2.324 0.582344 2 0.582344 1.6C0.582344 1.2 0.702344 0.88 0.942344 0.64C1.19034 0.4 1.51034 0.28 1.90234 0.28C2.30234 0.28 2.62234 0.4 2.86234 0.64C3.11034 0.88 3.23434 1.2 3.23434 1.6H2.43034C2.43034 1.44 2.38234 1.316 2.28634 1.228C2.19034 1.132 2.06234 1.084 1.90234 1.084C1.75034 1.084 1.62634 1.132 1.53034 1.228C1.43434 1.316 1.38634 1.44 1.38634 1.6C1.38634 1.76 1.43434 1.888 1.53034 1.984C1.62634 2.08 1.75034 2.128 1.90234 2.128V2.932ZM1.90234 2.932V2.128H6.09034V2.932H1.90234ZM4.77034 5.788V1.6H5.57434V5.788H4.77034Z" fill="#F3F6F8" fill-opacity="0.9"/>
</svg>
