<svg width="16" height="12" viewBox="0 0 16 12" fill="none" xmlns="http://www.w3.org/2000/svg">
<path d="M9.31172 6.52476C8.78672 6.52476 8.34297 6.34351 7.98047 5.98101C7.61797 5.61851 7.43672 5.17476 7.43672 4.64976C7.43672 4.13726 7.61797 3.69676 7.98047 3.32826C8.34297 2.95926 8.78672 2.77476 9.31172 2.77476C9.83672 2.77476 10.2805 2.95926 10.643 3.32826C11.0055 3.69676 11.1867 4.13726 11.1867 4.64976C11.1867 5.17476 11.0055 5.61851 10.643 5.98101C10.2805 6.34351 9.83672 6.52476 9.31172 6.52476ZM4.36172 8.84976C3.98672 8.84976 3.66797 8.71851 3.40547 8.45601C3.14297 8.19351 3.01172 7.87476 3.01172 7.49976V1.81851C3.01172 1.44351 3.14297 1.12476 3.40547 0.862256C3.66797 0.599756 3.98672 0.468506 4.36172 0.468506H14.2617C14.6367 0.468506 14.9555 0.599756 15.218 0.862256C15.4805 1.12476 15.6117 1.44351 15.6117 1.81851V7.49976C15.6117 7.87476 15.4805 8.19351 15.218 8.45601C14.9555 8.71851 14.6367 8.84976 14.2617 8.84976H4.36172ZM5.48672 7.72476H13.1367C13.1367 7.34976 13.268 7.03101 13.5305 6.76851C13.793 6.50601 14.1117 6.37476 14.4867 6.37476V2.94351C14.1117 2.94351 13.793 2.80901 13.5305 2.54001C13.268 2.27151 13.1367 1.95601 13.1367 1.59351H5.48672C5.48672 1.96851 5.35547 2.28726 5.09297 2.54976C4.83047 2.81226 4.51172 2.94351 4.13672 2.94351V6.37476C4.51172 6.37476 4.83047 6.50601 5.09297 6.76851C5.35547 7.03101 5.48672 7.34976 5.48672 7.72476ZM13.3805 11.4748H1.73672C1.36172 11.4748 1.04297 11.3435 0.780469 11.081C0.517969 10.8185 0.386719 10.4998 0.386719 10.1248V2.69976H1.51172V10.1248C1.51172 10.1873 1.53672 10.2403 1.58672 10.2838C1.63672 10.3278 1.68672 10.3498 1.73672 10.3498H13.3805V11.4748ZM4.36172 7.72476H4.13672C4.13672 7.72476 4.13672 7.70276 4.13672 7.65876C4.13672 7.61526 4.13672 7.56226 4.13672 7.49976V1.81851C4.13672 1.75601 4.13672 1.70301 4.13672 1.65951C4.13672 1.61551 4.13672 1.59351 4.13672 1.59351H4.36172C4.29922 1.59351 4.24622 1.61551 4.20272 1.65951C4.15872 1.70301 4.13672 1.75601 4.13672 1.81851V7.49976C4.13672 7.56226 4.15872 7.61526 4.20272 7.65876C4.24622 7.70276 4.29922 7.72476 4.36172 7.72476Z" fill="#F3F6F8" fill-opacity="0.7"/>
</svg>
